<svg viewBox="0 0 400 300"><rect width="350" height="260" x="25" y="20" fill="currentColor" stroke="currentColor" rx="10" ry="10"/><rect width="344" height="254" x="28" y="23" fill="currentColor" rx="8" ry="8"/><rect width="85" height="254" x="28" y="23" fill="currentColor" rx="8" ry="8"/><circle cx="60" cy="45" r="12" fill="currentColor"/><path fill="none" stroke="currentColor" stroke-width="2" d="M55 45a5 5 0 1110 0 5 5 0 11-10 0"/><rect width="57" height="20" x="42" y="75" fill="currentColor" rx="3" ry="3"/><rect width="57" height="20" x="42" y="100" fill="none" stroke="currentColor" opacity=".3" rx="3" ry="3"/><rect width="57" height="20" x="42" y="125" fill="none" stroke="currentColor" opacity=".3" rx="3" ry="3"/><circle cx="50" cy="85" r="4" fill="currentColor"/><rect width="30" height="3" x="60" fill="currentColor" rx="1" ry="1"/><circle cx="50" cy="110" r="4" fill="currentColor" opacity=".6"/><rect width="30" height="3" x="60" fill="currentColor" opacity=".6" rx="1" ry="1"/><circle cx="50" cy="135" r="4" fill="currentColor" opacity=".6"/><rect width="30" height="3" x="60" fill="currentColor" opacity=".6" rx="1" ry="1"/><rect width="242" height="30" x="123" y="33" fill="currentColor" stroke="currentColor" rx="5" ry="5"/><rect width="90" height="10" x="133" y="43" fill="currentColor" rx="2" ry="2"/><circle cx="345" cy="48" r="8" fill="currentColor" opacity=".2"/><circle cx="345" cy="48" r="5" fill="currentColor"/><rect width="73" height="60" x="123" y="73" fill="currentColor" stroke="currentColor" rx="5" ry="5"/><rect width="40" height="5" x="133" y="83" fill="currentColor" rx="1" ry="1"/><rect width="25" height="15" x="133" y="93" fill="currentColor" opacity=".9" rx="1" ry="1"/><rect width="73" height="60" x="206" y="73" fill="currentColor" stroke="currentColor" rx="5" ry="5"/><rect width="40" height="5" x="216" y="83" fill="currentColor" rx="1" ry="1"/><rect width="25" height="15" x="216" y="93" fill="currentColor" opacity=".9" rx="1" ry="1"/><rect width="73" height="60" x="289" y="73" fill="currentColor" stroke="currentColor" rx="5" ry="5"/><rect width="40" height="5" x="299" y="83" fill="currentColor" rx="1" ry="1"/><rect width="25" height="15" x="299" y="93" fill="currentColor" opacity=".9" rx="1" ry="1"/><rect width="238" height="120" x="123" y="143" fill="currentColor" stroke="currentColor" rx="5" ry="5"/><rect width="60" height="8" x="133" y="153" fill="currentColor" rx="2" ry="2"/><path fill="none" stroke="currentColor" stroke-linecap="round" stroke-linejoin="round" stroke-width="2" d="m133 240 30-15 30 8 30-20 30-10 30-8 30 18"/><path fill="none" stroke="currentColor" stroke-linecap="round" stroke-linejoin="round" stroke-width="2" d="m133 240 30-10 30 8 30-15 30 5 30-15 30 10"/><rect width="6" height="6" x="260" y="153" fill="currentColor" rx="1" ry="1"/><rect width="20" height="3" x="270" y="153" fill="currentColor" rx="1" ry="1"/><rect width="6" height="6" x="300" y="153" fill="currentColor" rx="1" ry="1"/><rect width="20" height="3" x="310" y="153" fill="currentColor" rx="1" ry="1"/><path stroke="currentColor" d="M133 240h180m-180-70v70"/><path stroke="currentColor" stroke-dasharray="2,2" d="M133 205h180"/></svg>