<svg viewBox="0 0 800 600"><rect width="700" height="520" x="50" y="40" fill="currentColor" stroke="currentColor" stroke-width="2" rx="20" ry="20"/><rect width="686" height="506" x="57" y="47" fill="currentColor" rx="14" ry="14"/><rect width="180" height="506" x="57" y="47" fill="currentColor" rx="14" ry="14"/><circle cx="120" cy="90" r="25" fill="currentColor"/><path fill="none" stroke="currentColor" stroke-width="4" d="M110 90a10 10 0 1120 0 10 10 0 11-20 0"/><rect width="134" height="40" x="80" y="150" fill="currentColor" rx="6" ry="6"/><rect width="134" height="40" x="80" y="200" fill="none" stroke="currentColor" opacity=".3" rx="6" ry="6"/><rect width="134" height="40" x="80" y="250" fill="none" stroke="currentColor" opacity=".3" rx="6" ry="6"/><rect width="134" height="40" x="80" y="300" fill="none" stroke="currentColor" opacity=".3" rx="6" ry="6"/><circle cx="100" cy="170" r="8" fill="currentColor"/><rect width="60" height="6" x="120" y="164" fill="currentColor" rx="3" ry="3"/><rect width="40" height="6" x="120" y="175" fill="currentColor" opacity=".6" rx="3" ry="3"/><circle cx="100" cy="220" r="8" fill="currentColor" opacity=".6"/><rect width="60" height="6" x="120" y="214" fill="currentColor" opacity=".6" rx="3" ry="3"/><rect width="40" height="6" x="120" y="225" fill="currentColor" opacity=".3" rx="3" ry="3"/><circle cx="100" cy="270" r="8" fill="currentColor" opacity=".6"/><rect width="60" height="6" x="120" y="264" fill="currentColor" opacity=".6" rx="3" ry="3"/><rect width="40" height="6" x="120" y="275" fill="currentColor" opacity=".3" rx="3" ry="3"/><circle cx="100" cy="320" r="8" fill="currentColor" opacity=".6"/><rect width="60" height="6" x="120" y="314" fill="currentColor" opacity=".6" rx="3" ry="3"/><rect width="40" height="6" x="120" y="325" fill="currentColor" opacity=".3" rx="3" ry="3"/><rect width="466" height="60" x="257" y="67" fill="currentColor" stroke="currentColor" rx="10" ry="10"/><rect width="180" height="20" x="277" y="87" fill="currentColor" rx="5" ry="5"/><circle cx="693" cy="97" r="15" fill="currentColor" opacity=".2"/><circle cx="693" cy="97" r="10" fill="currentColor"/><rect width="145" height="120" x="257" y="145" fill="currentColor" stroke="currentColor" rx="10" ry="10"/><rect width="80" height="10" x="277" y="167" fill="currentColor" rx="2" ry="2"/><rect width="50" height="30" x="277" y="185" fill="currentColor" opacity=".9" rx="2" ry="2"/><rect width="45" height="6" x="337" y="185" fill="currentColor" rx="2" ry="2"/><rect width="30" height="6" x="337" y="196" fill="currentColor" rx="2" ry="2"/><rect width="105" height="25" x="277" y="220" fill="currentColor" rx="5" ry="5"/><rect width="145" height="120" x="417" y="145" fill="currentColor" stroke="currentColor" rx="10" ry="10"/><rect width="80" height="10" x="437" y="167" fill="currentColor" rx="2" ry="2"/><rect width="50" height="30" x="437" y="185" fill="currentColor" opacity=".9" rx="2" ry="2"/><rect width="45" height="6" x="497" y="185" fill="currentColor" rx="2" ry="2"/><rect width="30" height="6" x="497" y="196" fill="currentColor" rx="2" ry="2"/><rect width="105" height="25" x="437" y="220" fill="currentColor" rx="5" ry="5"/><rect width="145" height="120" x="577" y="145" fill="currentColor" stroke="currentColor" rx="10" ry="10"/><rect width="80" height="10" x="597" y="167" fill="currentColor" rx="2" ry="2"/><rect width="50" height="30" x="597" y="185" fill="currentColor" opacity=".9" rx="2" ry="2"/><rect width="45" height="6" x="657" y="185" fill="currentColor" rx="2" ry="2"/><rect width="30" height="6" x="657" y="196" fill="currentColor" rx="2" ry="2"/><rect width="105" height="25" x="597" y="220" fill="currentColor" rx="5" ry="5"/><rect width="465" height="240" x="257" y="285" fill="currentColor" stroke="currentColor" rx="10" ry="10"/><rect width="120" height="15" x="277" y="305" fill="currentColor" rx="3" ry="3"/><path fill="none" stroke="currentColor" stroke-linecap="round" stroke-linejoin="round" stroke-width="3" d="m277 480 50-30 50 15 50-40 50-20 50-15 50-20 50 30 50-10"/><path fill="none" stroke="currentColor" stroke-linecap="round" stroke-linejoin="round" stroke-width="3" d="m277 480 50-20 50 15 50-30 50 10 50-30 50 10 50-20 50 15"/><circle cx="327" cy="450" r="5" fill="currentColor"/><circle cx="377" cy="465" r="5" fill="currentColor"/><circle cx="427" cy="425" r="5" fill="currentColor"/><circle cx="477" cy="405" r="5" fill="currentColor"/><circle cx="527" cy="390" r="5" fill="currentColor"/><circle cx="577" cy="370" r="5" fill="currentColor"/><circle cx="627" cy="400" r="5" fill="currentColor"/><circle cx="677" cy="390" r="5" fill="currentColor"/><circle cx="327" cy="460" r="5" fill="currentColor"/><circle cx="377" cy="475" r="5" fill="currentColor"/><circle cx="427" cy="445" r="5" fill="currentColor"/><circle cx="477" cy="455" r="5" fill="currentColor"/><circle cx="527" cy="425" r="5" fill="currentColor"/><circle cx="577" cy="435" r="5" fill="currentColor"/><circle cx="627" cy="415" r="5" fill="currentColor"/><circle cx="677" cy="430" r="5" fill="currentColor"/><rect width="12" height="12" x="520" y="305" fill="currentColor" rx="2" ry="2"/><rect width="40" height="6" x="540" y="305" fill="currentColor" rx="3" ry="3"/><rect width="20" height="6" x="540" y="315" fill="currentColor" rx="3" ry="3"/><rect width="12" height="12" x="600" y="305" fill="currentColor" rx="2" ry="2"/><rect width="40" height="6" x="620" y="305" fill="currentColor" rx="3" ry="3"/><rect width="20" height="6" x="620" y="315" fill="currentColor" rx="3" ry="3"/><path stroke="currentColor" d="M277 480h400"/><rect width="20" height="6" x="275" y="490" fill="currentColor" rx="3" ry="3"/><rect width="20" height="6" x="325" y="490" fill="currentColor" rx="3" ry="3"/><rect width="20" height="6" x="375" y="490" fill="currentColor" rx="3" ry="3"/><rect width="20" height="6" x="425" y="490" fill="currentColor" rx="3" ry="3"/><rect width="20" height="6" x="475" y="490" fill="currentColor" rx="3" ry="3"/><rect width="20" height="6" x="525" y="490" fill="currentColor" rx="3" ry="3"/><rect width="20" height="6" x="575" y="490" fill="currentColor" rx="3" ry="3"/><rect width="20" height="6" x="625" y="490" fill="currentColor" rx="3" ry="3"/><rect width="20" height="6" x="675" y="490" fill="currentColor" rx="3" ry="3"/><path stroke="currentColor" d="M277 330v150"/><rect width="15" height="6" x="255" y="330" fill="currentColor" rx="3" ry="3"/><rect width="15" height="6" x="255" y="360" fill="currentColor" rx="3" ry="3"/><rect width="15" height="6" x="255" y="390" fill="currentColor" rx="3" ry="3"/><rect width="15" height="6" x="255" y="420" fill="currentColor" rx="3" ry="3"/><rect width="15" height="6" x="255" y="450" fill="currentColor" rx="3" ry="3"/><rect width="15" height="6" x="255" y="480" fill="currentColor" rx="3" ry="3"/><path stroke="currentColor" stroke-dasharray="4,4" d="M277 360h400m-400 30h400m-400 30h400m-400 30h400"/></svg>