<svg viewBox="0 0 600 400"><circle cx="300" cy="200" r="150" fill="currentColor" opacity=".05"/><circle cx="300" cy="200" r="100" fill="currentColor" opacity=".05"/><circle cx="300" cy="200" r="80" fill="currentColor" stroke="currentColor" stroke-width="2"/><circle cx="300" cy="200" r="120" fill="none" stroke="currentColor" stroke-dasharray="4,4"/><circle cx="300" cy="200" r="160" fill="none" stroke="currentColor" stroke-dasharray="4,4"/><circle cx="300" cy="200" r="30" fill="currentColor"/><rect width="20" height="20" x="290" y="190" fill="currentColor" rx="2"/><path fill="none" stroke="currentColor" stroke-linecap="round" stroke-linejoin="round" stroke-width="3" d="m285 205 10 10 20-30"/><circle cx="365" cy="135" r="20" fill="currentColor" stroke="currentColor" stroke-width="2"/><rect width="10" height="10" x="360" y="130" fill="currentColor" rx="2"/><path stroke="currentColor" stroke-dasharray="4,2" stroke-width="2" d="m329 171 21-21"/><circle cx="365" cy="265" r="20" fill="currentColor" stroke="currentColor" stroke-width="2"/><rect width="10" height="10" x="360" y="260" fill="currentColor" rx="2"/><path stroke="currentColor" stroke-dasharray="4,2" stroke-width="2" d="m329 229 21 21"/><circle cx="235" cy="265" r="20" fill="currentColor" stroke="currentColor" stroke-width="2"/><rect width="10" height="10" x="230" y="260" fill="currentColor" rx="2"/><path stroke="currentColor" stroke-dasharray="4,2" stroke-width="2" d="m271 229-21 21"/><circle cx="235" cy="135" r="20" fill="currentColor" stroke="currentColor" stroke-width="2"/><rect width="10" height="10" x="230" y="130" fill="currentColor" rx="2"/><path stroke="currentColor" stroke-dasharray="4,2" stroke-width="2" d="m271 171-21-21"/><circle cx="420" cy="120" r="15" fill="currentColor" stroke="currentColor" stroke-width="2"/><path stroke="currentColor" stroke-width="2" d="M415 120h10m-5-5v10"/><path stroke="currentColor" stroke-dasharray="3,2" d="m375 145 32-18"/><circle cx="420" cy="280" r="15" fill="currentColor" stroke="currentColor" stroke-width="2"/><path stroke="currentColor" stroke-width="2" d="M415 280h10m-5-5v10"/><path stroke="currentColor" stroke-dasharray="3,2" d="m375 255 32 18"/><circle cx="180" cy="280" r="15" fill="currentColor" stroke="currentColor" stroke-width="2"/><path stroke="currentColor" stroke-width="2" d="M175 280h10m-5-5v10"/><path stroke="currentColor" stroke-dasharray="3,2" d="m225 255-32 18"/><circle cx="180" cy="120" r="15" fill="currentColor" stroke="currentColor" stroke-width="2"/><path stroke="currentColor" stroke-width="2" d="M175 120h10m-5-5v10"/><path stroke="currentColor" stroke-dasharray="3,2" d="m225 145-32-18"/><circle cx="460" cy="200" r="15" fill="currentColor" stroke="currentColor" stroke-width="2"/><path stroke="currentColor" stroke-width="2" d="M455 200h10m-5-5v10"/><path stroke="currentColor" stroke-dasharray="3,2" d="M380 200h65"/><circle cx="140" cy="200" r="15" fill="currentColor" stroke="currentColor" stroke-width="2"/><path stroke="currentColor" stroke-width="2" d="M135 200h10m-5-5v10"/><path stroke="currentColor" stroke-dasharray="3,2" d="M220 200h-65"/><circle cx="300" cy="340" r="15" fill="currentColor" stroke="currentColor" stroke-width="2"/><path stroke="currentColor" stroke-width="2" d="M295 340h10m-5-5v10"/><path stroke="currentColor" stroke-dasharray="3,2" d="M300 280v45"/><circle cx="300" cy="60" r="15" fill="currentColor" stroke="currentColor" stroke-width="2"/><path stroke="currentColor" stroke-width="2" d="M295 60h10m-5-5v10"/><path stroke="currentColor" stroke-dasharray="3,2" d="M300 120V75"/><path fill="currentColor" d="m460 120 5-5 5 5-5 5ZM360 320l5-5 5 5-5 5ZM215 85l5-5 5 5-5 5Zm-75 195 5-5 5 5-5 5Z" opacity=".5"/><path fill="none" stroke="currentColor" stroke-width="2" d="M150 200c50-40 100 40 150 0s100-80 150 0" opacity=".7"/><path fill="none" stroke="currentColor" stroke-width="2" d="M150 220c50-40 100 40 150 0s100-80 150 0" opacity=".7"/><circle cx="220" cy="350" r="4" fill="currentColor" opacity=".3"/><circle cx="250" cy="330" r="3" fill="currentColor" opacity=".3"/><circle cx="190" cy="370" r="5" fill="currentColor" opacity=".3"/><circle cx="380" cy="350" r="4" fill="currentColor" opacity=".3"/><circle cx="410" cy="330" r="3" fill="currentColor" opacity=".3"/><circle cx="350" cy="370" r="5" fill="currentColor" opacity=".3"/><circle cx="220" cy="50" r="4" fill="currentColor" opacity=".3"/><circle cx="250" cy="70" r="3" fill="currentColor" opacity=".3"/><circle cx="190" cy="30" r="5" fill="currentColor" opacity=".3"/><circle cx="380" cy="50" r="4" fill="currentColor" opacity=".3"/><circle cx="410" cy="70" r="3" fill="currentColor" opacity=".3"/><circle cx="350" cy="30" r="5" fill="currentColor" opacity=".3"/><circle cx="480" cy="150" r="4" fill="currentColor" opacity=".3"/><circle cx="510" cy="170" r="3" fill="currentColor" opacity=".3"/><circle cx="490" cy="130" r="5" fill="currentColor" opacity=".3"/><circle cx="480" cy="250" r="4" fill="currentColor" opacity=".3"/><circle cx="510" cy="230" r="3" fill="currentColor" opacity=".3"/><circle cx="490" cy="270" r="5" fill="currentColor" opacity=".3"/><circle cx="120" cy="150" r="4" fill="currentColor" opacity=".3"/><circle cx="90" cy="170" r="3" fill="currentColor" opacity=".3"/><circle cx="110" cy="130" r="5" fill="currentColor" opacity=".3"/><circle cx="120" cy="250" r="4" fill="currentColor" opacity=".3"/><circle cx="90" cy="230" r="3" fill="currentColor" opacity=".3"/><circle cx="110" cy="270" r="5" fill="currentColor" opacity=".3"/></svg>