<svg viewBox="0 0 400 300"><rect width="400" height="300" fill="currentColor" rx="8" ry="8"/><rect width="300" height="40" x="50" y="40" fill="currentColor" opacity=".1" rx="4"/><circle cx="70" cy="60" r="10" fill="currentColor"/><rect width="100" height="10" x="90" y="55" fill="currentColor" rx="2"/><rect width="50" height="10" x="280" y="55" fill="currentColor" rx="2"/><rect width="300" height="50" x="50" y="100" fill="currentColor" stroke="currentColor" rx="4"/><circle cx="70" cy="125" r="10" fill="currentColor"/><rect width="120" height="8" x="90" y="115" fill="currentColor" rx="2"/><rect width="80" height="6" x="90" y="130" fill="currentColor" rx="2"/><rect width="50" height="10" x="280" y="120" fill="currentColor" opacity=".7" rx="2"/><rect width="300" height="50" x="50" y="160" fill="currentColor" stroke="currentColor" rx="4"/><circle cx="70" cy="185" r="10" fill="currentColor"/><rect width="120" height="8" x="90" y="175" fill="currentColor" rx="2"/><rect width="80" height="6" x="90" y="190" fill="currentColor" rx="2"/><rect width="50" height="10" x="280" y="180" fill="currentColor" opacity=".7" rx="2"/><rect width="300" height="50" x="50" y="220" fill="currentColor" stroke="currentColor" rx="4"/><circle cx="70" cy="245" r="10" fill="currentColor"/><rect width="120" height="8" x="90" y="235" fill="currentColor" rx="2"/><rect width="80" height="6" x="90" y="250" fill="currentColor" rx="2"/><rect width="50" height="10" x="280" y="240" fill="currentColor" opacity=".7" rx="2"/></svg>